<svg width="123" height="54" viewBox="0 0 123 54" fill="none" xmlns="http://www.w3.org/2000/svg">
<rect x="0.894531" width="121.965" height="54" rx="27" fill="#FFE1E1"/>
<path d="M26.6545 25.924C26.6545 25.8173 26.7079 25.764 26.8145 25.764H28.7665C28.8732 25.764 28.9265 25.8173 28.9265 25.924V29.7C28.9479 29.9667 29.0599 30.18 29.2625 30.34C29.4759 30.4893 29.7692 30.564 30.1425 30.564H30.4945C30.7079 30.564 30.8679 30.6387 30.9745 30.788C31.0812 30.9373 31.1345 31.1827 31.1345 31.524C31.1345 32.1747 30.9212 32.5 30.4945 32.5C30.1425 32.5 29.8385 32.468 29.5825 32.404C29.3265 32.3293 29.1079 32.18 28.9265 31.956V32.212C28.9265 33.428 28.6919 34.324 28.2225 34.9C27.7532 35.4867 26.9532 35.78 25.8225 35.78H25.0865C24.9799 35.78 24.9265 35.7267 24.9265 35.62V34.004C24.9265 33.8973 24.9799 33.844 25.0865 33.844H25.4385C25.7265 33.844 25.9505 33.796 26.1105 33.7C26.2705 33.6147 26.3879 33.4813 26.4625 33.3C26.5479 33.1293 26.6012 32.916 26.6225 32.66C26.6439 32.404 26.6545 32.1107 26.6545 31.78V25.924ZM29.8483 31.556C29.8483 30.8947 30.0616 30.564 30.4883 30.564H31.8483V29.028C31.8483 28.3453 31.9496 27.7747 32.1523 27.316C32.3549 26.8573 32.6163 26.4947 32.9363 26.228C33.2669 25.9613 33.6349 25.7747 34.0403 25.668C34.4563 25.5507 34.8723 25.492 35.2883 25.492C35.7683 25.492 36.2216 25.5453 36.6483 25.652C37.0749 25.7587 37.4483 25.9347 37.7683 26.18C38.0883 26.4253 38.3443 26.7507 38.5363 27.156C38.7283 27.5613 38.8243 28.0573 38.8243 28.644C38.8243 29.0173 38.7763 29.3853 38.6803 29.748C38.5843 30.1107 38.4776 30.3827 38.3603 30.564H39.8483C40.0723 30.564 40.2323 30.6387 40.3283 30.788C40.4349 30.9267 40.4883 31.1773 40.4883 31.54C40.4883 31.9027 40.4349 32.1533 40.3283 32.292C40.2216 32.4307 40.0616 32.5 39.8483 32.5H38.3443C38.4509 32.6493 38.5309 32.82 38.5843 33.012C38.6483 33.2147 38.6803 33.4227 38.6803 33.636C38.6803 34.052 38.5949 34.4093 38.4243 34.708C38.2536 35.0067 38.0136 35.2467 37.7043 35.428C37.4056 35.62 37.0536 35.7587 36.6483 35.844C36.2429 35.9293 35.8003 35.972 35.3203 35.972C34.8296 35.972 34.3709 35.9293 33.9443 35.844C33.5283 35.7693 33.1603 35.6307 32.8403 35.428C32.5309 35.236 32.2856 34.9747 32.1043 34.644C31.9336 34.324 31.8483 33.924 31.8483 33.444V32.5H30.4883C30.0616 32.5 29.8483 32.1853 29.8483 31.556ZM35.3043 27.428C34.9309 27.428 34.6323 27.5507 34.4083 27.796C34.1843 28.0307 34.0723 28.3987 34.0723 28.9V30.596H35.4163C35.8323 30.596 36.1363 30.436 36.3283 30.116C36.5203 29.796 36.6163 29.4013 36.6163 28.932C36.6163 28.42 36.4989 28.0413 36.2643 27.796C36.0403 27.5507 35.7203 27.428 35.3043 27.428ZM35.3203 34.116C35.7363 34.116 36.0296 34.0413 36.2003 33.892C36.3816 33.7533 36.4723 33.5507 36.4723 33.284C36.4723 33.0067 36.3869 32.7827 36.2163 32.612C36.0563 32.452 35.7096 32.372 35.1763 32.372H34.0723V33.156C34.0723 33.4973 34.1736 33.7427 34.3763 33.892C34.5789 34.0413 34.8936 34.116 35.3203 34.116ZM45.32 32.5C44.904 32.5 44.5627 32.4253 44.296 32.276C44.0294 32.116 43.8267 31.908 43.688 31.652C43.5387 31.9933 43.3147 32.2227 43.016 32.34C42.7174 32.4467 42.296 32.5 41.752 32.5H39.832C39.6187 32.5 39.4587 32.4413 39.352 32.324C39.2454 32.196 39.192 31.956 39.192 31.604C39.192 31.2307 39.2454 30.964 39.352 30.804C39.448 30.644 39.608 30.564 39.832 30.564H40.904C41.2134 30.564 41.4107 30.4893 41.496 30.34C41.5814 30.18 41.624 29.892 41.624 29.476V27.076C41.624 26.9693 41.6774 26.916 41.784 26.916H43.736C43.8427 26.916 43.896 26.9693 43.896 27.076V29.7C43.896 30.0413 44.0027 30.2707 44.216 30.388C44.4294 30.5053 44.664 30.564 44.92 30.564C45.1227 30.564 45.2827 30.5427 45.4 30.5C45.528 30.4573 45.6187 30.3933 45.672 30.308C45.7254 30.2227 45.7574 30.1107 45.768 29.972C45.7894 29.8227 45.8 29.6413 45.8 29.428V27.076C45.8 26.9693 45.8534 26.916 45.96 26.916H47.912C48.0187 26.916 48.072 26.9693 48.072 27.076V29.684C48.072 30.0467 48.1787 30.2867 48.392 30.404C48.616 30.5107 48.8667 30.564 49.144 30.564C49.3467 30.564 49.5014 30.5427 49.608 30.5C49.7147 30.4573 49.7947 30.3933 49.848 30.308C49.9014 30.212 49.9334 30.0947 49.944 29.956C49.9547 29.8067 49.96 29.6253 49.96 29.412V25.924C49.96 25.8173 50.0134 25.764 50.12 25.764H52.072C52.1787 25.764 52.232 25.8173 52.232 25.924V30.484C52.232 31.1773 52.088 31.6893 51.8 32.02C51.512 32.34 51.032 32.5 50.36 32.5H49.48C49.064 32.5 48.7227 32.4253 48.456 32.276C48.2 32.116 48.0027 31.908 47.864 31.652C47.7147 31.9827 47.4854 32.2067 47.176 32.324C46.8774 32.4413 46.4667 32.5 45.944 32.5H45.32ZM44.824 24.148C44.7174 24.148 44.664 24.0947 44.664 23.988V22.42C44.664 22.3133 44.7174 22.26 44.824 22.26H46.424C46.5307 22.26 46.584 22.3133 46.584 22.42V23.988C46.584 24.0947 46.5307 24.148 46.424 24.148H44.824ZM47.288 24.148C47.1814 24.148 47.128 24.0947 47.128 23.988V22.42C47.128 22.3133 47.1814 22.26 47.288 22.26H48.904C49.0107 22.26 49.064 22.3133 49.064 22.42V23.988C49.064 24.0947 49.0107 24.148 48.904 24.148H47.288ZM46.072 21.86C45.9654 21.86 45.912 21.8067 45.912 21.7V20.132C45.912 20.0253 45.9654 19.972 46.072 19.972H47.672C47.7787 19.972 47.832 20.0253 47.832 20.132V21.7C47.832 21.8067 47.7787 21.86 47.672 21.86H46.072ZM58.6162 30.564H60.0722C60.3388 30.564 60.5308 30.5053 60.6482 30.388C60.7762 30.26 60.8402 30.036 60.8402 29.716V21.78C60.8402 21.6733 60.8935 21.62 61.0002 21.62H62.9522C63.0588 21.62 63.1122 21.6733 63.1122 21.78V30.484C63.1122 31.1773 62.9682 31.6893 62.6802 32.02C62.3922 32.34 61.9122 32.5 61.2402 32.5H53.8002C53.6935 32.5 53.6402 32.4467 53.6402 32.34V30.724C53.6402 30.6173 53.6935 30.564 53.8002 30.564H56.3442V24.036C56.3442 23.9293 56.3975 23.876 56.5042 23.876H58.4562C58.5628 23.876 58.6162 23.9293 58.6162 24.036V30.564ZM67.2824 32.34C67.2824 32.4467 67.2291 32.5 67.1224 32.5H65.1864C65.0797 32.5 65.0264 32.4467 65.0264 32.34V21.78C65.0264 21.6733 65.0797 21.62 65.1864 21.62H67.1224C67.2291 21.62 67.2824 21.6733 67.2824 21.78V32.34Z" fill="#FF1111"/>
<path d="M91.3021 26.9999C91.5617 26.5736 91.8301 26.1328 92.0951 25.6782C92.9822 24.1575 93.145 22.6252 92.5791 21.1238C91.4373 18.0945 87.6203 16.2488 86.7366 15.9543L86.1153 15.7471L85.1455 17.687L85.6135 18.0694C85.6187 18.0736 86.1385 18.5278 86.1732 19.2164C86.2028 19.8042 85.8805 20.4394 85.2157 21.1044C84.7539 21.5661 84.2472 22.0125 83.7106 22.4851C81.4532 24.4732 78.8945 26.7271 78.8945 30.991C78.8945 31.0495 78.8951 31.1077 78.8962 31.1656C78.9125 32.1065 79.1146 33.0349 79.4908 33.8975C79.867 34.7601 80.41 35.5399 81.0884 36.1921C82.4507 37.5172 84.2774 38.2567 86.1779 38.2527H90.5251L89.9885 37.1637C87.8081 32.7385 89.35 30.206 91.3021 26.9999Z" fill="#FF1111"/>
<path d="M98.7173 30.9425C98.7047 30.8926 98.6916 30.8425 98.6779 30.7922C98.1329 28.7941 95.1162 26.2249 94.7741 25.9385L94.087 25.3635L93.6364 26.138C92.6096 27.9033 91.7284 29.5135 91.3443 31.3402C90.9063 33.4234 91.2012 35.5406 92.2459 37.8129L92.4479 38.2527H92.9614C93.8658 38.2553 94.7586 38.0502 95.5713 37.6533C96.3839 37.2564 97.0945 36.6783 97.6485 35.9634C98.199 35.2641 98.5817 34.4478 98.767 33.5773C98.9523 32.7068 98.9353 31.8054 98.7173 30.9425Z" fill="#FF1111"/>
</svg>
